<svg width="16" height="16" viewBox="0 0 16 16" fill="none" xmlns="http://www.w3.org/2000/svg">
<path d="M14.3026 0H8.8984C8.5409 0 8.04124 0.207111 7.78864 0.459514L0.379433 7.86869C-0.126478 8.37403 -0.126478 9.20255 0.379433 9.70728L5.89619 15.2238C6.40096 15.7292 7.22868 15.7292 7.73421 15.2233L15.1434 7.81524C15.3958 7.56288 15.6029 7.06241 15.6029 6.70567V1.3003C15.6029 0.585297 15.0176 0 14.3026 0ZM11.702 5.20101C10.9839 5.20101 10.4017 4.61822 10.4017 3.90071C10.4017 3.18201 10.9839 2.60041 11.702 2.60041C12.4201 2.60041 13.0025 3.18201 13.0025 3.90071C13.0025 4.61822 12.4201 5.20101 11.702 5.20101Z" fill="white"/>
</svg>
