<svg width="23" height="23" viewBox="0 0 23 23" fill="none" xmlns="http://www.w3.org/2000/svg">
<path d="M6.25193 5.30009L4.34825 3.39641C4.08533 3.13349 3.65933 3.13349 3.39641 3.39641C3.13349 3.65933 3.13349 4.08533 3.39641 4.34825L5.30009 6.25193C5.56301 6.51485 5.989 6.51485 6.25193 6.25193C6.51485 5.989 6.51485 5.56301 6.25193 5.30009Z" fill="white"/>
<path d="M3.41048 10.8145H0.673122C0.301065 10.8145 0 11.1155 0 11.4876C0 11.8596 0.301065 12.1607 0.673122 12.1607H3.41048C3.78254 12.1607 4.0836 11.8596 4.0836 11.4876C4.0836 11.1155 3.78254 10.8145 3.41048 10.8145Z" fill="white"/>
<path d="M22.3031 10.8145H19.5657C19.1936 10.8145 18.8926 11.1155 18.8926 11.4876C18.8926 11.8596 19.1936 12.1607 19.5657 12.1607H22.3031C22.6751 12.1607 22.9762 11.8596 22.9762 11.4876C22.9762 11.1155 22.6751 10.8145 22.3031 10.8145Z" fill="white"/>
<path d="M19.5801 3.39641C19.3171 3.13349 18.8911 3.13349 18.6282 3.39641L16.7245 5.30009C16.4616 5.56301 16.4616 5.989 16.7245 6.25193C16.9875 6.51485 17.4135 6.51485 17.6764 6.25193L19.5801 4.34825C19.843 4.08533 19.843 3.65938 19.5801 3.39641Z" fill="white"/>
<path d="M11.4876 0C11.1155 0 10.8145 0.301065 10.8145 0.673122V3.41048C10.8145 3.78254 11.1155 4.0836 11.4876 4.0836C11.8596 4.0836 12.1607 3.78254 12.1607 3.41048V0.673122C12.1607 0.301065 11.8596 0 11.4876 0Z" fill="white"/>
<path d="M15.2579 6.73541C13.7906 5.57764 11.8923 5.16035 10.0345 5.60461C7.88054 6.10272 6.14393 7.8124 5.61885 9.95298C5.09381 12.1069 5.69962 14.2878 7.24776 15.8091C7.79976 16.3611 8.12286 17.2271 8.12286 18.1157V18.2638C8.12286 18.6407 8.41899 18.9369 8.79598 18.9369H14.181C14.5579 18.9369 14.8541 18.6407 14.8541 18.2638V18.1157C14.8541 17.2406 15.1906 16.3476 15.783 15.7687C16.9139 14.6244 17.5466 13.1032 17.5466 11.4877C17.5466 9.62988 16.7119 7.89318 15.2579 6.73541ZM11.4885 9.46833C10.473 9.46833 9.73369 10.1419 9.5401 10.9217C9.45201 11.2764 9.09516 11.5027 8.72432 11.4134C8.36411 11.324 8.14386 10.9585 8.2333 10.5983C8.56681 9.25208 9.83129 8.12209 11.4885 8.12209C11.8605 8.12209 12.1616 8.42315 12.1616 8.79521C12.1616 9.16726 11.8605 9.46833 11.4885 9.46833Z" fill="white"/>
<path d="M8.79492 20.2832V20.9563C8.79492 22.0698 9.70076 22.9757 10.8143 22.9757H12.1605C13.2741 22.9757 14.1799 22.0698 14.1799 20.9563V20.2832H8.79492Z" fill="white"/>
</svg>
