<svg width="40" height="45" viewBox="0 0 40 45" fill="none" xmlns="http://www.w3.org/2000/svg">
<path d="M9.98746 16.8118C10.0177 16.7892 10.6011 16.499 10.6676 16.4718C11.5396 16.1151 12.3573 15.9972 13.2777 15.5106C13.8218 15.2234 15.5916 13.8103 15.8516 13.768C16.2052 13.7105 16.9685 14.4103 17.3523 14.6052C18.9786 15.4335 20.7711 15.4622 22.423 14.6778C22.7963 14.501 23.7228 13.7559 23.9888 13.7559C24.2336 13.7559 26.144 15.24 26.6503 15.509C28.736 16.6123 30.2806 16.0108 30.7189 18.8084C31.2342 22.0926 30.4665 25.6836 28.1828 28.1441C23.8951 23.155 16.0359 23.1626 11.7467 28.1441C10.1552 26.4302 9.20004 23.9772 9.07762 21.6346C9.02472 20.6235 9.13203 17.4285 9.99049 16.8118H9.98746Z" fill="#1163EA"/>
<path d="M2.21768 26.4988C1.29121 26.1648 0.242325 24.8983 0.0911886 23.922C-0.0962207 22.7114 0.0171317 19.5088 0.322428 18.3133C0.715383 16.7747 2.51542 16.811 3.80764 16.1309C4.27767 15.883 6.03992 14.5288 6.26058 14.5077C6.45102 14.4895 7.45607 15.2059 7.74928 15.3586C8.26012 15.6246 8.45811 15.6442 8.90699 15.9586C7.14624 18.0276 7.30796 21.732 7.94273 24.2348C8.45811 26.2706 9.51002 27.8349 10.7161 29.5034C9.28029 31.9685 8.76492 34.8008 9.35888 37.6074C8.98709 37.6527 8.66366 37.5348 8.33871 37.3807C7.46816 36.9711 3.88169 33.3831 3.52199 32.5065C2.89175 30.971 3.43735 29.8102 4.25802 28.5392C4.13107 28.3654 4.24442 28.119 4.59808 27.7986L4.39556 27.1245L2.48821 26.7966C2.3265 26.7497 2.19199 26.6757 2.21919 26.4988H2.21768Z" fill="#1163EA"/>
<path d="M24.3264 2.58161C26.1295 5.75246 25.2605 10.9621 22.1652 13.0584C18.9913 15.2091 15.8855 12.3178 14.9741 9.26941C14.5781 7.94394 14.628 6.9812 14.5781 5.64062C14.7519 4.98317 14.8003 4.30004 15.027 3.65317C16.5112 -0.602834 22.079 -1.37212 24.3264 2.5801V2.58161Z" fill="#1163EA"/>
<path d="M13.5487 4.16947C13.0832 5.19871 13.322 8.02194 13.6046 9.15849C13.7134 9.59225 14.1729 10.5142 14.1986 10.818C14.2182 11.0386 13.9356 11.5313 13.8162 11.749C12.7507 13.6896 10.5622 15.3067 8.33446 14.1445C2.99027 11.3575 4.55 -0.181755 11.5401 2.26817C12.2822 2.52812 13.4943 3.31857 13.5487 4.16947Z" fill="#1163EA"/>
<path d="M33.8444 4.2812C35.5795 7.29184 34.5654 12.8794 31.0877 14.2759C29.203 15.0331 27.4483 13.9146 26.3843 12.3655C26.1697 12.0526 25.6876 11.3045 25.6166 10.9705C25.5667 10.7347 26.0987 9.53622 26.1939 9.15686C26.4433 8.15785 26.735 5.10942 26.2498 4.2812C26.1864 3.38344 27.4997 2.53255 28.2584 2.26655C30.4348 1.50331 32.7003 2.29828 33.8444 4.2812Z" fill="#1163EA"/>
<path d="M18.7475 26.3055C27.7174 25.2959 32.5039 36.4286 25.5758 42.202C20.0714 46.7875 11.4763 43.068 10.9533 35.9646C10.6103 31.3051 14.038 26.836 18.7475 26.3055Z" fill="#1163EA"/>
<path d="M35.2271 26.9775C35.1183 27.0818 34.9445 27.715 34.9929 27.8888C35.0669 28.1624 35.9707 29.1523 36.1717 29.5528C36.672 30.5488 36.6901 31.7458 36.1642 32.7313C35.7924 33.4295 31.8099 37.2654 31.0905 37.5193C30.8683 37.5979 30.6764 37.6341 30.4406 37.6054C30.9681 35.1751 30.6613 32.9595 29.7001 30.6954C29.5791 30.4098 29.1182 29.7448 29.0955 29.5891C29.0456 29.2581 30.0688 28.1518 30.3061 27.78C32.0291 25.0837 32.7621 21.2116 31.9943 18.0876C31.7601 17.137 31.3097 16.5566 30.894 15.7314C31.689 15.8644 32.9782 14.5707 33.4709 14.4981C33.6931 14.4649 35.5097 15.8795 35.9934 16.1289C36.9894 16.6443 38.8242 16.8664 39.3063 17.8035C39.7884 18.7405 39.8459 22.4661 39.7416 23.6117C39.6448 24.6757 38.865 25.8424 37.9113 26.3155C37.3053 26.6163 35.407 26.8037 35.2271 26.976V26.9775Z" fill="#1163EA"/>
<path d="M23.8084 34.0919C22.7669 35.1851 21.5823 36.2154 20.4999 37.2777C19.6111 38.1515 18.8691 39.5529 17.4343 38.4373C17.0026 38.1017 15.5751 36.7181 15.2708 36.3019C14.2798 34.9456 15.723 33.4944 16.981 34.2603C17.26 34.4298 18.2678 35.6629 18.4602 35.6285L22.3147 31.7752C23.539 30.7164 25.183 31.9732 24.4891 33.2964C24.4001 33.4659 23.9695 33.9236 23.8084 34.0919Z" fill="#7CAAF3"/>
</svg>
